:SAMPLES-PER-SECOND 30
:FULLY-SPECIFIED
:DEGREES
303
root  29.5737 26.9273 31.2249 -167.951 44.5395 172.875
RightUpLeg  -41.2832 -3.42628 -17.831
RightLeg  73.8893 -1.9833 -5.7129
RightFoot  -28.5683 1.03017 4.4223
RightToes  -44.564 -0.25593 -0.339425
Spine  18.4389 3.16565 -0.658123
Spine1  31.4739 12.1256 -5.58337
HEad  5.47483 12.8171 -8.12008
LeftShoulder1  0 -2.42657e-020 -4.95415e-022
LeftArm  -23.6853 -19.6137 -79.4665
LeftForeArm  24.3455 -26.2614 -4.98403
LeftHand  0.0493593 -7.08719 -1.16815
RightShoulder  0 2.42657e-020 1.07489e-018
RightArm  -63.1446 49.0976 43.6632
RightForeArm  48.2926 49.8189 12.0582
RightHand  -0.568733 25.754 -2.11793
LeftUpLeg  -67.6378 -0.742301 14.1103
LeftLeg  46.4917 -9.37529 -8.58764
LeftFoot  18.4236 0.62934 -3.87917
LeftToes  -35.7045 8.63562e-007 1.17448e-007
304
root  29.6349 26.8382 32.6949 -167.061 43.0261 173.057
RightUpLeg  -43.6009 -3.7551 -15.4105
RightLeg  74.6712 -2.10308 -6.31241
RightFoot  -31.0924 1.2552 4.88748
RightToes  -41.2321 -0.2284 -0.321976
Spine  19.2529 5.09099 -0.603339
Spine1  32.5859 16.5281 -5.58804
HEad  4.84605 9.59572 -5.75832
LeftShoulder1  0 -2.42657e-020 -4.95415e-022
LeftArm  -21.8211 -21.5496 -82.8725
LeftForeArm  24.423 -26.5341 -5.04421
LeftHand  0.0474496 -7.23818 -1.12122
RightShoulder  0 2.42657e-020 1.07489e-018
RightArm  -63.6939 50.475 34.6531
RightForeArm  52.329 45.3439 10.2648
RightHand  -1.8164 26.4029 -7.36395
LeftUpLeg  -69.5869 1.91587 8.4159
LeftLeg  54.7504 -1.7742 -2.20363
LeftFoot  12.5111 0.0122883 -0.112113
LeftToes  -35.8853 8.63562e-007 1.17448e-007
305
root  29.7276 26.7367 34.0783 -164.706 41.1027 174.13
RightUpLeg  -47.2684 -4.99532 -12.2419
RightLeg  76.2743 -2.0495 -6.77132
RightFoot  -31.6932 1.36285 5.17637
RightToes  -39.9773 -0.218302 -0.314994
Spine  19.7546 6.56628 -0.0980024
Spine1  33.2229 19.8697 -4.83172
HEad  4.60433 6.83574 -3.09276
LeftShoulder1  0 -2.42657e-020 -4.95415e-022
LeftArm  -20.4195 -23.0929 -86.5031
LeftForeArm  24.4294 -26.1306 -4.95524
LeftHand  0.0343726 -7.2431 -0.913896
RightShoulder  0 2.42657e-020 1.07489e-018
RightArm  -63.9851 50.9405 29.3879
RightForeArm  57.8677 37.8698 7.84044
RightHand  -2.81818 27.2886 -11.205
LeftUpLeg  -72.2575 1.93987 5.9246
LeftLeg  64.2869 1.82802 3.2285
LeftFoot  4.73191 -0.0398249 0.963851
LeftToes  -29.5975 8.63562e-007 1.17448e-007
306
root  29.8083 26.6572 35.2348 -163.514 37.47 173.932
RightUpLeg  -49.7731 -8.43962 -9.96784
RightLeg  77.7679 -1.7987 -6.58239
RightFoot  -32.4548 1.38975 5.15016
RightToes  -38.3468 -0.205413 -0.305594
Spine  20.5676 6.93769 0.502655
Spine1  34.1737 21.0435 -4.20552
HEad  3.86432 3.89791 -0.984678
LeftShoulder1  0 -2.42657e-020 -4.95415e-022
LeftArm  -19.2923 -24.5308 -89.2507
LeftForeArm  24.1076 -26.2443 -4.9803
LeftHand  0.0303134 -7.20546 -0.852218
RightShoulder  0 2.42657e-020 1.07489e-018
RightArm  -68.5608 52.595 26.0061
RightForeArm  58.384 28.6655 5.48435
RightHand  -2.24179 26.8702 -8.99684
LeftUpLeg  -73.7527 -1.01788 3.49754
LeftLeg  72.4088 2.22806 5.68458
LeftFoot  -1.17303 0.00727225 0.710372
LeftToes  -25.2808 8.63562e-007 1.17448e-007
307
root  29.9225 26.6775 36.239 -162.614 33.6133 173.501
RightUpLeg  -51.561 -11.0233 -8.03435
RightLeg  78.5348 -1.85511 -7.13948
RightFoot  -32.987 1.49648 5.42881
RightToes  -36.8272 -0.193647 -0.296507
Spine  21.482 7.0022 1.1933
Spine1  35.2892 21.3315 -3.2699
HEad  3.62236 0.437572 1.02175
LeftShoulder1  0 -2.42657e-020 -4.95415e-022
LeftArm  -17.4599 -26.5445 -91.7232
LeftForeArm  24.763 -25.6954 -4.85995
LeftHand  -0.00667832 -7.11306 -0.262757
RightShoulder  0 2.42657e-020 1.07489e-018
RightArm  -77.3561 53.9895 20.9626
RightForeArm  61.811 18.0066 3.23192
RightHand  -1.06458 25.5454 -4.32468
LeftUpLeg  -73.0696 -3.54293 0.457676
LeftLeg  77.7148 2.29497 7.94314
LeftFoot  -5.6528 0.00816088 0.165291
LeftToes  -23.5654 8.63562e-007 1.17448e-007
308
root  30.0807 26.8902 37.1727 -161.205 30.5179 173.762
RightUpLeg  -53.0917 -10.9015 -5.81366
RightLeg  78.0807 -2.65207 -9.70959
RightFoot  -32.7296 1.82531 6.58809
RightToes  -33.1912 -0.166502 -0.273522
Spine  21.9353 7.13517 1.81195
Spine1  35.8404 20.9622 -1.66477
HEad  2.53721 -3.72851 3.87802
LeftShoulder1  0 -2.42657e-020 -4.95415e-022
LeftArm  -15.4048 -28.119 -93.623
LeftForeArm  25.6957 -25.3074 -4.77541
LeftHand  0.0136505 -7.28932 -0.58481
RightShoulder  0 2.42657e-020 1.07489e-018
RightArm  -86.3295 52.6675 18.4297
RightForeArm  63.9428 10.9602 1.90279
RightHand  0.650696 25.0265 3.3021
LeftUpLeg  -70.5877 -4.05654 -2.37707
LeftLeg  80.0805 2.73347 11.1226
LeftFoot  -9.62101 -0.0832228 -0.988883
LeftToes  -24.0764 8.63562e-007 1.17448e-007
309
root  30.215 27.3262 37.9552 -159.68 27.5161 173.679
RightUpLeg  -54.1524 -10.144 -4.27409
RightLeg  76.4378 -3.93914 -12.7307
RightFoot  -31.8011 2.14643 7.9026
RightToes  -29.4956 -0.140463 -0.248445
Spine  21.5259 6.86664 1.94212
Spine1  34.9599 19.4455 -0.742289
HEad  0.571653 -7.17178 5.78957
LeftShoulder1  0 -2.42657e-020 -4.95415e-022
LeftArm  -13.6781 -27.6813 -93.6521
LeftForeArm  25.683 -26.6311 -5.06539
LeftHand  0.0199217 -7.72562 -0.665593
RightShoulder  0 2.42657e-020 1.07489e-018
RightArm  -86.6243 50.1016 22.1206
RightForeArm  59.8249 9.57701 1.66134
RightHand  0.283267 24.7633 1.66072
LeftUpLeg  -67.2506 -4.03777 -4.8895
LeftLeg  79.3329 3.74705 14.305
LeftFoot  -12.7568 -0.282777 -2.52923
LeftToes  -23.29 8.63562e-007 1.17448e-007
310
root  30.3168 27.8978 38.5741 -158.174 24.1832 173.174
RightUpLeg  -54.7928 -9.96672 -3.35364
RightLeg  74.1738 -5.54686 -15.4597
RightFoot  -30.3975 2.35964 9.04806
RightToes  -26.2032 -0.118669 -0.224731
Spine  20.7537 6.24747 2.06716
Spine1  33.7055 17.4954 -0.447763
HEad  -1.43789 -9.41817 6.32408
LeftShoulder1  0 -2.42657e-020 -4.95415e-022
LeftArm  -11.7516 -26.3433 -92.4682
LeftForeArm  24.7864 -28.6854 -5.52982
LeftHand  0.00332363 -8.00397 -0.417815
RightShoulder  0 2.42657e-020 1.07489e-018
RightArm  -84.8252 47.7726 27.7961
RightForeArm  55.9061 11.9538 2.10216
RightHand  -0.840809 25.6534 -3.32243
LeftUpLeg  -63.8734 -4.11601 -6.69107
LeftLeg  76.3524 4.95855 15.462
LeftFoot  -14.4667 -0.44606 -3.51339
LeftToes  -23.3101 8.63562e-007 1.17448e-007
311
root  30.3933 28.5448 39.0556 -156.839 20.2832 172.991
RightUpLeg  -54.4513 -11.1297 -2.11708
RightLeg  71.1007 -7.32741 -17.199
RightFoot  -28.7995 2.39373 9.68179
RightToes  -23.5899 -0.102362 -0.205041
Spine  19.927 5.52771 2.55419
Spine1  32.6233 15.4676 0.306219
HEad  -2.75996 -11.2917 6.45515
LeftShoulder1  0 -2.42657e-020 -4.95415e-022
LeftArm  -10.3881 -24.7613 -91.8909
LeftForeArm  25.8179 -30.2189 -5.88855
LeftHand  -0.0194779 -8.16683 -0.0971931
RightShoulder  0 2.42657e-020 1.07489e-018
RightArm  -75.316 43.7781 33.1243
RightForeArm  49.2008 18.0699 3.26984
RightHand  -2.30626 24.5147 -10.2192
LeftUpLeg  -61.269 -3.67115 -7.46214
LeftLeg  72.0664 5.2075 12.8847
LeftFoot  -14.9613 -0.417794 -3.18096
LeftToes  -23.3927 8.63562e-007 1.17448e-007
312
root  30.4298 29.2495 39.3004 -156.359 16.3643 172.46
RightUpLeg  -52.8812 -13.9729 -1.25179
RightLeg  67.4587 -8.90814 -17.563
RightFoot  -26.9482 2.21021 9.58362
RightToes  -22.9449 -0.0984767 -0.200068
Spine  19.4237 4.69967 3.14049
Spine1  32.1602 13.4585 1.14338
HEad  -3.82334 -12.6502 6.70266
LeftShoulder1  0 -2.42657e-020 -4.95415e-022
LeftArm  -9.39534 -22.995 -91.6421
LeftForeArm  26.6991 -31.8176 -6.2751
LeftHand  -0.0365239 -8.10938 0.145417
RightShoulder  0 2.42657e-020 1.07489e-018
RightArm  -70.2588 40.2744 35.4578
RightForeArm  47.1557 23.7157 4.41669
RightHand  -2.97218 24.5863 -13.2119
LeftUpLeg  -59.2554 -2.63371 -8.04507
LeftLeg  66.9405 3.71498 7.3141
LeftFoot  -13.2471 -0.180258 -1.55225
LeftToes  -23.7093 8.63562e-007 1.17448e-007
313
root  30.4002 29.9933 39.4351 -155.719 13.4806 171.884
RightUpLeg  -51.4256 -15.9696 -0.88249
RightLeg  63.5694 -10.7433 -17.8986
RightFoot  -24.1466 1.89691 9.22942
RightToes  -24.2279 -0.10626 -0.209916
Spine  18.7516 4.03982 3.32145
Spine1  31.3766 12.0073 1.18056
HEad  -4.01621 -12.8291 6.94964
LeftShoulder1  0 -2.42657e-020 -4.95415e-022
LeftArm  -8.92532 -20.8211 -90.8089
LeftForeArm  25.654 -33.7587 -6.76416
LeftHand  -0.00128544 -7.97828 -0.351818
RightShoulder  0 2.42657e-020 1.07489e-018
RightArm  -65.754 38.1933 37.5736
RightForeArm  47.4812 28.5508 5.47984
RightHand  -3.19018 24.9909 -13.9574
LeftUpLeg  -58.5808 0.0933561 -9.0761
LeftLeg  63.0817 0.080558 0.124383
LeftFoot  -8.74252 0.0213911 0.279827
LeftToes  -27.1665 8.63562e-007 1.17448e-007
314
root  30.2619 30.6637 39.4302 -155.726 10.644 170.599
RightUpLeg  -49.2799 -15.1977 -3.26571
RightLeg  61.5129 -12.8182 -19.4921
RightFoot  -20.4942 1.55994 8.99122
RightToes  -22.1496 -0.0937631 -0.193877
Spine  18.1869 3.01291 3.31792
Spine1  30.757 9.72732 1.06715
HEad  -3.23483 -12.4034 6.77825
LeftShoulder1  0 -2.42657e-020 -4.95415e-022
LeftArm  -9.33476 -19.2296 -90.3643
LeftForeArm  25.0584 -34.7793 -7.03049
LeftHand  0.0179872 -7.73954 -0.636438
RightShoulder  0 2.42657e-020 1.07489e-018
RightArm  -60.3083 36.2552 40.5597
RightForeArm  53.9601 34.5683 6.94381
RightHand  -4.36947 21.591 -22.2639
LeftUpLeg  -57.687 2.55866 -10.6204
LeftLeg  60.6961 -4.65808 -7.14246
LeftFoot  -3.43443 0.0253891 0.846842
LeftToes  -38.0037 8.63562e-007 1.17448e-007
315
root  30.0185 31.0696 39.3553 -156.434 8.38449 169.084
RightUpLeg  -48.1773 -9.27834 -8.76498
RightLeg  63.6888 -11.9342 -19.7862
RightFoot  -14.7766 0.821831 6.70942
RightToes  -32.493 -0.16146 -0.268914
Spine  18.0285 2.10599 3.40862
Spine1  30.7293 7.41814 1.73159
HEad  -1.99217 -13.013 5.02752
LeftShoulder1  0 -2.42657e-020 -4.95415e-022
LeftArm  -8.49307 -18.5868 -90.4462
LeftForeArm  25.0266 -35.2153 -7.1463
LeftHand  0.0157238 -7.98744 -0.595679
RightShoulder  0 2.42657e-020 1.07489e-018
RightArm  -59.4631 34.9874 41.5364
RightForeArm  58.0026 40.6371 8.66636
RightHand  -4.74 21.7099 -23.9962
LeftUpLeg  -56.4491 4.31854 -11.4961
LeftLeg  60.4332 -8.04986 -12.0675
LeftFoot  -1.52943 0.00895473 0.670871
LeftToes  -45.1721 8.63562e-007 1.17448e-007
316
root  29.6479 31.0783 39.3821 -156.185 6.61984 168.21
RightUpLeg  -49.9078 -6.4257 -13.4376
RightLeg  66.7558 -8.23152 -15.8531
RightFoot  -15.2401 0.687325 5.51198
RightToes  -17.6551 -0.0687765 -0.157707
Spine  17.7366 1.63518 4.01038
Spine1  30.3946 6.32474 2.52558
HEad  -1.18254 -12.5998 2.49367
LeftShoulder1  0 -2.42657e-020 -4.95415e-022
LeftArm  -8.05409 -17.6743 -91.2322
LeftForeArm  25.5736 -36.7012 -7.55084
LeftHand  0.0561492 -8.08974 -1.16497
RightShoulder  0 2.42657e-020 1.07489e-018
RightArm  -57.9381 35.1512 40.5515
RightForeArm  57.5035 42.3582 9.21813
RightHand  -5.32769 20.4599 -28.5515
LeftUpLeg  -57.0095 4.11027 -10.3203
LeftLeg  62.0299 -6.86109 -10.9785
LeftFoot  -3.58841 0.0301812 0.963451
LeftToes  -43.6857 8.63562e-007 1.17448e-007
